<?xml version="1.0" encoding="UTF-8"?>
<svg width="210mm" height="297mm" version="1.1" viewBox="0 0 744.09448819 1052.3622047" xmlns="http://www.w3.org/2000/svg" xmlns:xlink="http://www.w3.org/1999/xlink">
 <defs>
  <filter id="b" x="-.408" y="-.408" width="1.816" height="1.816" color-interpolation-filters="sRGB">
   <feGaussianBlur stdDeviation="70.457467"/>
  </filter>
 </defs>
 <rect x="-1200.5" y="-502.64" width="1920" height="1080"/>
 <use transform="matrix(1.4145 0 0 1.4145 997.22 -198.49)" width="100%" height="100%" xlink:href="#a"/>
 <use transform="matrix(1.2387 0 0 1.2387 1141.8 199.51)" width="100%" height="100%" xlink:href="#a"/>
 <circle cx="-239" cy="37.362" r="207.23" fill="#fff" fill-opacity=".43987" filter="url(#b)"/>
 <circle cx="-239" cy="37.362" r="207.23" fill="#008bff"/>
 <path d="m-239-334.46a371.82 371.82 0 0 0 -371.82 371.82 371.82 371.82 0 0 0 371.82 371.82 371.82 371.82 0 0 0 371.82 -371.82 371.82 371.82 0 0 0 -371.82 -371.82zm0 2.2134a369.61 369.61 0 0 1 369.61 369.61 369.61 369.61 0 0 1 -369.61 369.61 369.61 369.61 0 0 1 -369.61 -369.61 369.61 369.61 0 0 1 369.61 -369.61z" fill="#999"/>
 <g transform="matrix(.55523 0 0 .55523 -27.521 -79.862)">
  <circle cx="95.696" cy="-249.11" r="82.025" fill="#ccc"/>
  <path d="m95.695-331.13a82.025 82.025 0 0 0 -58.957 25.127 82.025 82.025 0 0 1 56.059 -22.227 82.025 82.025 0 0 1 82.025 82.023 82.025 82.025 0 0 1 -23.068 56.898 82.025 82.025 0 0 0 25.967 -59.797 82.025 82.025 0 0 0 -82.025 -82.025z" fill="#f2f2f2"/>
  <circle cx="60.901" cy="-267.64" r="20.784" fill="#4d4d4d"/>
  <circle cx="63.801" cy="-220.99" r="9.6668" fill="#4d4d4d"/>
  <circle cx="107.78" cy="-260.63" r="7.2501" fill="#4d4d4d"/>
  <circle cx="116.73" cy="-225.1" r="18.609" fill="#4d4d4d"/>
  <circle cx="89.901" cy="-303.4" r="9.6668" fill="#4d4d4d"/>
  <circle cx="87.726" cy="-195.62" r="11.6" fill="#4d4d4d"/>
  <circle cx="145.24" cy="-264.74" r="8.4584" fill="#4d4d4d"/>
 </g>
 <path d="m-367.64-13.768c-24.271-0.055833-39.597 41.836-43.193 59.818-3.2962 16.481 5.5826 24.484 9.666 36.734 4.0064 12.019-6.7656 19.161-6.7656 28.033 0 25.923 9.4732 39.249 21.266 62.834 9.3198 18.64 41.206 11.731 46.4 37.701 0.3813 1.9065 0.53228 4.2919 0.53125 7.0137a207.23 207.23 0 0 0 35.244 15.414c0.31529-8.8645 8.7826-15.49 13.525-23.395 13.403-22.338-0.5208-35.844-9.666-54.135-4.4546-8.9093 4.834-20.877 4.834-29 0-14.503 21.007-102.73 15.467-108.27-14.237-14.237-40.698-5.8995-45.434-10.635-2.9495-2.9495-6.4727-1.7842-10.635-3.8652-7.9438-3.9719-13.5-12.068-20.299-15.467-3.8242-1.9121-7.4742-2.7772-10.941-2.7852z" fill="#0f0"/>
 <path d="m-138.76-132.76c-2.679 0.02846-4.9214 0.27709-6.2461 0.93945 2.4215 7.0132 2.3864 14.83 3.8672 22.234 13.456 67.282-53.742 25.422-76.367 36.734-2.8325 1.4162-2.8693 10.602-4.834 12.566-6.9279 6.9279-34.639-6.9279-41.566 0-1.1925 1.1925 2.2615 4.8235 0.96679 6.7656-3.971 5.9565-12 7.9916-16.434 13.533-1.7378 2.1722-0.9668 6.0686-0.9668 8.7012 0 20.647 27.275 7.3543 39.633 13.533 9.3895 4.6948 18.443 15.617 23.201 25.133 10.237 20.473 6.4842 50.67 14.5 66.701 5.368 10.736 10.507 13.03 13.533 25.135 2.0105 8.0421-2.6128 18.261 0 26.1 1.6608 4.9824 32.868 4.5114 37.701 2.9004 6.8749-2.2916 33.972-16.277 38.666-20.301 9.1896-7.8768 27.853-56.249 17.4-66.701-0.93332-0.93332-7.1033-9.3303-4.834-11.6 5.6368-5.6368 47.856-0.78778 65.932-25.959a207.23 207.23 0 0 0 -84.949 -135.47c-0.10671-7e-5 -0.20738-0.00195-0.31446-0.00195-4.9881 0-12.995-1.0021-18.889-0.93945z" fill="#0f0"/>
 <circle id="a" cx="-1006" cy="29.78" r="2.5633" fill="#ececec"/>
 <use transform="matrix(1.3433 0 0 1.3433 1615 -451.71)" width="100%" height="100%" xlink:href="#a"/>
 <use transform="matrix(1.3464 0 0 1.3464 1831.6 -406.78)" width="100%" height="100%" xlink:href="#a"/>
 <use transform="matrix(.82716 0 0 .82716 469.73 -239.82)" width="100%" height="100%" xlink:href="#a"/>
 <use transform="matrix(1.2486 0 0 1.2486 1920.6 224.87)" width="100%" height="100%" xlink:href="#a"/>
 <use transform="matrix(1.2931 0 0 1.2931 1867.7 118.15)" width="100%" height="100%" xlink:href="#a"/>
 <use transform="matrix(1.1389 0 0 1.1389 1478 -416.33)" width="100%" height="100%" xlink:href="#a"/>
 <use transform="matrix(1.3682 0 0 1.3682 1066.7 428.14)" width="100%" height="100%" xlink:href="#a"/>
 <use transform="matrix(1.1519 0 0 1.1519 178.36 160.26)" width="100%" height="100%" xlink:href="#a"/>
 <use transform="matrix(.66466 0 0 .66466 400.25 429.4)" width="100%" height="100%" xlink:href="#a"/>
 <use transform="matrix(1.3811 0 0 1.3811 743.5 -292.07)" width="100%" height="100%" xlink:href="#a"/>
 <use transform="matrix(.64606 0 0 .64606 584.03 326.46)" width="100%" height="100%" xlink:href="#a"/>
 <use transform="matrix(1.3581 0 0 1.3581 807.45 -186.67)" width="100%" height="100%" xlink:href="#a"/>
 <use transform="matrix(.58471 0 0 .58471 369.5 336.91)" width="100%" height="100%" xlink:href="#a"/>
 <use transform="matrix(.91335 0 0 .91335 -30.872 396.57)" width="100%" height="100%" xlink:href="#a"/>
 <use transform="matrix(1.205 0 0 1.205 1280.3 220.16)" width="100%" height="100%" xlink:href="#a"/>
 <use transform="matrix(.82528 0 0 .82528 940.08 -37.207)" width="100%" height="100%" xlink:href="#a"/>
 <use transform="matrix(.7956 0 0 .7956 928.81 220.02)" width="100%" height="100%" xlink:href="#a"/>
 <use transform="matrix(.64622 0 0 .64622 738.43 -403.36)" width="100%" height="100%" xlink:href="#a"/>
 <use transform="matrix(.88095 0 0 .88095 639.53 -323.28)" width="100%" height="100%" xlink:href="#a"/>
 <use transform="matrix(.67773 0 0 .67773 782.6 451.43)" width="100%" height="100%" xlink:href="#a"/>
 <use transform="matrix(1.4137 0 0 1.4137 1901 412.45)" width="100%" height="100%" xlink:href="#a"/>
 <use transform="matrix(.89888 0 0 .89888 1347.3 380.34)" width="100%" height="100%" xlink:href="#a"/>
 <use transform="matrix(1.3192 0 0 1.3192 1570.7 17.975)" width="100%" height="100%" xlink:href="#a"/>
 <use transform="matrix(.83079 0 0 .83079 1053 -189.93)" width="100%" height="100%" xlink:href="#a"/>
 <use transform="matrix(1.2687 0 0 1.2687 896.7 325.62)" width="100%" height="100%" xlink:href="#a"/>
 <use transform="matrix(1.2901 0 0 1.2901 636.93 119.89)" width="100%" height="100%" xlink:href="#a"/>
 <use transform="matrix(.77002 0 0 .77002 58.517 438.86)" width="100%" height="100%" xlink:href="#a"/>
 <use transform="matrix(1.1954 0 0 1.1954 777.47 -410.34)" width="100%" height="100%" xlink:href="#a"/>
 <use transform="matrix(1.1431 0 0 1.1431 657.75 197.07)" width="100%" height="100%" xlink:href="#a"/>
 <use transform="matrix(.85501 0 0 .85501 50.742 -423.2)" width="100%" height="100%" xlink:href="#a"/>
 <use transform="matrix(1.3761 0 0 1.3761 681.15 480.94)" width="100%" height="100%" xlink:href="#a"/>
 <use transform="matrix(1.3553 0 0 1.3553 419.33 -195.16)" width="100%" height="100%" xlink:href="#a"/>
 <use transform="matrix(1.0957 0 0 1.0957 30.978 55.367)" width="100%" height="100%" xlink:href="#a"/>
 <use transform="matrix(.94983 0 0 .94983 -83.486 -279.01)" width="100%" height="100%" xlink:href="#a"/>
 <use transform="matrix(1.0945 0 0 1.0945 661.97 -380.95)" width="100%" height="100%" xlink:href="#a"/>
 <use transform="matrix(1.2831 0 0 1.2831 533.41 -270.47)" width="100%" height="100%" xlink:href="#a"/>
 <use transform="matrix(.88569 0 0 .88569 169.22 -39.441)" width="100%" height="100%" xlink:href="#a"/>
 <use transform="matrix(1.3602 0 0 1.3602 690.83 -309.04)" width="100%" height="100%" xlink:href="#a"/>
 <use transform="matrix(1.3764 0 0 1.3764 1451.8 84.271)" width="100%" height="100%" xlink:href="#a"/>
 <use transform="matrix(.77379 0 0 .77379 1008.2 -193.19)" width="100%" height="100%" xlink:href="#a"/>
 <use transform="matrix(.81719 0 0 .81719 1264 -218.81)" width="100%" height="100%" xlink:href="#a"/>
 <use transform="matrix(.72462 0 0 .72462 778.8 -515.69)" width="100%" height="100%" xlink:href="#a"/>
</svg>
